PathFileType	4	(X/Y/Z)	Patient4_TMGait_0pt2_02_right_08.trc.trc
DataRate	CameraRate	NumFrames	NumMarkers	Units	OrigDataRate	OrigDataStartFrame	OrigNumFrames
43.343653250774	43.343653250774	4	33	mm	43.343653250774	36	       141
Frame#	Time	R.Midfoot.Superior			Sacral			L.Shoulder			Chest			R.Shoulder			Neck			R.ASIS			L.ASIS			R.Thigh.Superior			R.Thigh.Lateral			R.Thigh.Inferior			R.Patella			L.Thigh.Superior			L.Thigh.Lateral			L.Thigh.Inferior			L.Patella			L.Shank.Superior			L.Shank.Lateral			L.Shank.Inferior			R.Shank.Superior			R.Shank.Lateral			R.Shank.Inferior			R.Heel			R.Midfoot.Lateral			R.Toe			L.Heel			L.Midfoot.Lateral			L.Midfoot.Superior			L.Toe			L.Elbow			L.Wrist			R.Elbow			R.Wrist			
		X1	Y1	Z1	X2	Y2	Z2	X3	Y3	Z3	X4	Y4	Z4	X5	Y5	Z5	X6	Y6	Z6	X7	Y7	Z7	X8	Y8	Z8	X9	Y9	Z9	X10	Y10	Z10	X11	Y11	Z11	X12	Y12	Z12	X13	Y13	Z13	X14	Y14	Z14	X15	Y15	Z15	X16	Y16	Z16	X17	Y17	Z17	X18	Y18	Z18	X19	Y19	Z19	X20	Y20	Z20	X21	Y21	Z21	X22	Y22	Z22	X23	Y23	Z23	X24	Y24	Z24	X25	Y25	Z25	X26	Y26	Z26	X27	Y27	Z27	X28	Y28	Z28	X29	Y29	Z29	X30	Y30	Z30	X31	Y31	Z31	X32	Y32	Z32	X33	Y33	Z33	

36	17.677500000000	1129.383780816365	97.510416900952	600.956876389253	848.160044266635	1013.165660627080	511.973847839041	1080.486282951108	1429.365342461242	359.752820078989	1150.881577258717	1355.983987484942	534.192313989862	1046.364584445781	1437.104509362211	691.815172699077	1036.937464056976	1491.939575429073	511.945448942919	1063.062494034052	933.319144974669	651.370121442982	1076.742675666408	958.458195781920	377.247917084468	1121.937651438282	748.526127656868	606.255310246175	1057.680219869618	629.217484647843	667.353058639712	1136.802894661701	586.490576938458	582.578591601496	1148.678205276018	497.412755434485	587.979581839904	1069.859043316319	727.411651047470	394.968498750184	956.542406175075	633.867054183418	322.567408852711	1017.726468306640	537.884732267272	382.586048580820	1000.607789792549	467.536280308903	385.807682317817	953.032184783670	408.121831833701	373.310576988204	833.473603920859	326.099168504671	318.883387619454	855.400241284059	198.632608609087	378.106071087863	1121.224120419484	406.096066303393	595.788047268867	1057.855507812113	301.942326318568	665.808148894925	1092.183335005995	207.055297914105	598.559032844763	954.833252636615	43.463726404335	590.457073242240	1048.340491351092	36.835667724104	651.342336259904	1252.119048393598	47.606128699048	610.095366178341	695.113904917223	66.093843064190	412.173018518301	767.862921953288	51.150657008906	332.743915139891	859.526070950990	101.228376134278	357.750222525455	977.901152265036	37.477258348496	328.541259866047	1206.197978318008	1129.517375120394	204.384189831370	1465.096349888006	1110.927802518674	231.956150962931	902.788414514213	1119.148886667236	796.888126024702	906.669474498227	857.136434939074	813.809533222056	
37	17.700571428571	1125.074669400932	97.417531970580	600.970593913902	849.795657883790	1014.020455821495	519.387480311225	1080.173307145080	1429.685468165416	363.483905780821	1152.985982145857	1356.433621702208	537.038681527842	1050.720924717384	1437.841575791001	695.974121588212	1038.925418906249	1492.635816588538	515.990513350262	1066.266915268231	933.780616230727	656.056981721552	1076.496363395040	959.094236536072	381.769992167335	1123.049796624517	747.778971678289	610.084669529204	1057.844791977968	628.792147095441	670.902726035479	1135.875272110087	585.772902317191	585.355152905435	1146.838740318245	496.652066345996	590.078102752236	1070.605971368419	728.559736500527	397.529845162651	957.103444973088	635.071739684126	325.497552055136	1020.301445332902	538.572069426205	383.253496785450	1003.598956279085	467.496734130543	385.624876664392	954.538214722383	408.855182656059	373.802574418265	832.937383091224	329.231615290170	320.218314484606	853.923317196209	200.756492612684	377.811686454124	1118.928002084314	405.552587909814	597.463619103905	1055.332007639998	301.271677633294	666.959128939558	1088.681743764614	206.681587460058	599.016744429539	950.535497082893	43.476934507494	590.470525688433	1044.028002155990	36.833355402855	651.340555428260	1247.848027591839	47.307574140708	610.146507347210	691.774492869762	70.803427751103	412.010417905565	764.003183934791	53.664148382098	332.685127232977	856.798139199647	101.944660727644	357.089559291464	973.450405321592	37.151218697278	328.568429798621	1198.291760409655	1124.601725845971	209.248301282822	1456.083497193484	1091.488201204259	234.536592817736	912.556434106570	1118.057328055661	804.853406965012	926.490871991457	856.685393840553	823.755789483047	
38	17.723642857143	1120.678826861971	97.327603760728	600.945742521726	851.259618509468	1014.635414056115	526.661142320189	1079.361501586763	1429.883062892267	366.944444812836	1154.641626691088	1356.869196424155	539.591026721882	1054.582683473637	1438.518887072995	699.809678172326	1040.461702128353	1493.228235479035	519.731826009085	1069.336775436727	934.178314139388	660.547060449060	1076.064273604779	959.654129112657	386.179266976148	1124.119103792255	746.979275084342	613.703129914881	1057.999615881488	628.294349072455	674.252670418799	1134.954472168566	585.018168729271	587.965965906448	1144.992717693113	495.852371330418	592.035557212054	1072.001009136599	729.830550984704	399.877652785635	958.760331629570	636.004075317886	328.208383931257	1024.306932595460	539.218752533325	383.733088004615	1008.191277397138	467.217305045259	385.094207480295	957.416307252993	409.358521783256	374.056008658475	833.670865773926	332.552188526936	321.272852371335	853.163494630296	203.130951137090	377.303450466208	1116.603775901995	404.976851104077	599.036059190211	1052.738953915640	300.617686829814	668.034737576442	1085.116560195041	206.309382706209	599.433423014166	946.140680171968	43.516809242797	590.460845060975	1039.624234280197	36.846323379294	651.316176387455	1243.473522687556	47.009850801855	610.158564160835	688.792079979772	76.588847920001	411.563301062451	760.354649461909	56.876742689022	332.423491275275	854.375180598054	102.941314860688	356.247343905182	968.881790966581	36.735673079485	328.616999107629	1189.405504072549	1119.433010888459	214.184715473493	1444.644354424912	1069.658520468064	237.050254973415	922.418056853804	1116.713001536310	812.291434019184	947.750848741778	856.533420655146	832.800958962633	
39	17.746714285714	1116.201217348278	97.232128654745	600.886643940199	852.567266187974	1014.965587034082	533.787327018142	1078.013290423737	1429.950252437493	370.127602299048	1155.807150023991	1357.298195256093	541.849280798906	1057.874725390135	1439.114348028315	703.318840672159	1041.476516861978	1493.695668746750	523.169059891557	1072.310085056343	934.524036451410	664.834291093795	1075.507650170196	960.123836860860	390.458891816334	1125.232232861649	746.143660181127	617.101247604990	1058.263833154959	627.727199025656	677.400692263710	1134.163040048772	584.231571465808	590.397849620463	1143.290671518558	494.997238372516	593.837466849776	1074.205135616257	731.247066676032	402.098591523001	961.799760251651	636.640921226717	330.720240606994	1030.004815274517	539.860495562283	384.149961273398	1014.643875576383	466.730597725199	384.342115220860	961.928279193115	409.632676473362	374.144267738007	835.977114040794	336.138611483601	322.018499337068	853.287163984028	205.870889696507	376.592686085688	1114.361085063973	404.354339806621	600.491884846967	1050.166542107635	299.983014782884	669.042486461352	1081.532153875856	205.924156951696	599.804086031811	941.645297786133	43.577911926367	590.433020093204	1035.127503097929	36.873047435070	651.274950668792	1239.002950471260	46.698709284695	610.138973834842	686.300691602857	83.774798241958	410.765307896315	757.029525655131	61.076035051587	331.911376662983	852.351900233549	104.389108422972	355.230171542244	964.190551673362	36.210357457873	328.687045088199	1179.556912225031	1114.063620805531	219.272975236533	1430.368197640720	1045.682592126172	239.554572517066	932.388684021379	1115.097147429182	819.199830742242	970.426864286616	856.825302011632	840.902586305602	
